# xmcd
#
# Track frame offsets: 
#        150
#        17547
#        40975
#        75965
#        96200
#        110492
#        129710
#        150640
#        167295
#
# Disc length: 2423 seconds
#
# Revision: 3
# Processed by: cddbd v1.5.2PL0 Copyright (c) Steve Scherf et al.
# Submitted via: ExactAudioCopy v0.99pb4
#
DISCID=5d097509
DTITLE=Peter Green - In The Skies
DYEAR=1979
DGENRE=Blues
TTITLE0=In The Skies
TTITLE1=Slabo Day
TTITLE2=A Fool No More
TTITLE3=Tribal Dance
TTITLE4=Seven Stars
TTITLE5=Funky Chunk
TTITLE6=Just For You
TTITLE7=Proud Pinto
TTITLE8=Apostle
EXTD=
EXTT0=
EXTT1=
EXTT2=
EXTT3=
EXTT4=
EXTT5=
EXTT6=
EXTT7=
EXTT8=
PLAYORDER=
